<svg xmlns="http://www.w3.org/2000/svg" width="154" height="27.175" viewBox="0 0 154 27.175"><g transform="translate(-226 -402.958)"><g transform="translate(226 402.958)"><path d="M352.933,403.114c-.521.521-.862.911-1.252,1.242a5.112,5.112,0,0,0-1.521,3.287,6.793,6.793,0,0,0,1.395,5.009c.524.773,1.16,1.49,1.626,2.272,1.39,2.337,2.938,4.566,4.414,6.844q2.432,3.752,4.866,7.5a7.849,7.849,0,0,0,.59.7,15.183,15.183,0,0,0,2.222-2.555c.557-1,.36-2.159.743-3.01l-.237-1.534a10.206,10.206,0,0,0-.68-1.7c-1.255-1.961-2.558-3.891-3.848-5.829-1-1.5-2.009-3-2.966-4.518-1.512-2.406-3.17-4.72-4.572-7.2C353.585,403.4,353.227,403.3,352.933,403.114Zm-14.282,27.019a31.4,31.4,0,0,0,2.221-2.71,9.442,9.442,0,0,0,.577-4.5c-.027-.162-.178-.3-.238-.459a29.894,29.894,0,0,0-2.877-4.818c-.59-.977-1.357-1.852-1.9-2.852-1.109-2.043-2.53-3.879-3.737-5.856-1.12-1.833-2.369-3.588-3.558-5.379a1.807,1.807,0,0,1-.133-.286h-.65a14.685,14.685,0,0,0-1.716,1.95,6.19,6.19,0,0,0-.565,5.389,5.867,5.867,0,0,0,.844,1.741q2.587,3.654,4.942,7.46c1.455,2.347,3.034,4.617,4.556,6.923C337.114,427.789,337.807,428.848,338.651,430.133Zm-56.6-.308V402.968c-2.07.01-4.094-.012-6.069.013v26.844Zm98.557,0V402.97c-2,0-3.952,0-5.9,0a.217.217,0,0,0-.117.051c-.035.027-.06.067-.042.046v26.755ZM310.7,402.981v26.808a4.584,4.584,0,0,0,2.97-.58,6.654,6.654,0,0,0,2.145-1.886,4.616,4.616,0,0,0,1.278-3.095q.018-7.826,0-15.652a3.825,3.825,0,0,0-.15-.908,6.422,6.422,0,0,0-2-3.094A5.383,5.383,0,0,0,310.7,402.981Zm-3.716,26.811V403.007h-1.543c-.053.053-.108.154-.186.18a7.064,7.064,0,0,0-3.807,3.217,3.055,3.055,0,0,0-.539,1.438c-.006.7-.342,1.3-.333,1.98.01.7,0,1.4,0,2.1,0,3.214.056,6.43-.029,9.642-.032,1.2.369,2.333.318,3.518,0,.111.132.221.177.342a6.56,6.56,0,0,0,2.77,3.552A4.449,4.449,0,0,0,306.984,429.793Zm88.469.055V403.033a3.331,3.331,0,0,0-2.216.379,7.3,7.3,0,0,0-3.076,2.724,3.425,3.425,0,0,0-.822,2.04q0,8.245,0,16.49a3.637,3.637,0,0,0,.582,1.716,8.319,8.319,0,0,0,1.79,2.049A5.061,5.061,0,0,0,395.453,429.848ZM261.135,419.706c.178.131.339.347.463.326a16.672,16.672,0,0,0,2.047-.44,6.8,6.8,0,0,0,2.908-2.377,4.483,4.483,0,0,0,.934-2.932,24.8,24.8,0,0,0-.214-6.306,7.026,7.026,0,0,0-2.361-3.632c-.739-.586-1.614-.862-2.3-1.342h-1.474Zm24.924-3.035v13.113h6.118c0-2.487-.037-4.908.018-7.327a4.64,4.64,0,0,0-.87-2.584,8.986,8.986,0,0,0-1.5-1.748A5.287,5.287,0,0,0,286.06,416.67Zm6.066-9.034a8.7,8.7,0,0,0-2.158-3.086A5.056,5.056,0,0,0,286.079,403v12.921a7.828,7.828,0,0,0,4.378-2.107C292.212,412.075,292.352,409.931,292.126,407.636Zm65.237-4.454,3.785,6.03,2.92-.288c2.355-1.645,2.085-3.8,1.983-5.905-2.894,0-5.718,0-8.543,0C357.477,403.024,357.447,403.088,357.363,403.183Zm1.488,26.62-3.964-6.1a7.133,7.133,0,0,0-3.18.456c-.869.362-.954,1.247-1.539,1.624V429.8Zm-33.05.006h8.624l-3.878-6.1c-2.095-.109-3.852.146-4.746,2.116Zm15.611-22.887v-3.892H332.8c1.409,2.046,2.592,4.19,3.926,6.036C338.86,409.354,340.5,408.921,341.412,406.923Z" transform="translate(-251.297 -402.958)" fill="#fff"/><path d="M226,403h6.016c.214,1.221.291,22.06.1,26.88H226Z" transform="translate(-226 -402.988)" fill="#fff"/><path d="M760.1,466.677a6.144,6.144,0,0,0-.553.807,5.855,5.855,0,0,1-2.885,2.851,4.835,4.835,0,0,1-2.669.52c-.017-.323-.049-.674-.05-1.025-.006-1.722.05-3.447-.017-5.167a4.689,4.689,0,0,1,1.861-4.4c1.386-.529,2.862-.239,4.313-.31Z" transform="translate(-606.103 -443.985)" fill="#fff"/><path d="M760.092,413.928c-.791,0-1.585.037-2.374-.007-2.465-.138-3.675-1.377-3.766-3.722-.092-2.364-.02-4.734-.02-7.17a5.092,5.092,0,0,1,4.238,1.57,13.96,13.96,0,0,0,1.414,1.621c.4.3-.092.907.508.988Z" transform="translate(-606.092 -402.997)" fill="#fff"/><path d="M581.662,403.514c.294.188.651.289.781.519,1.4,2.476,3.06,4.791,4.572,7.2.956,1.522,1.968,3.018,2.966,4.518,1.29,1.938,2.593,3.868,3.847,5.829a10.2,10.2,0,0,1,.68,1.7l.237,1.534c-.383.851-.186,2.012-.743,3.01a15.184,15.184,0,0,1-2.222,2.555,7.849,7.849,0,0,1-.59-.7q-2.441-3.746-4.866-7.5c-1.476-2.278-3.025-4.507-4.414-6.844-.466-.783-1.1-1.5-1.626-2.272a6.793,6.793,0,0,1-1.395-5.009,5.112,5.112,0,0,1,1.521-3.287C580.8,404.425,581.14,404.035,581.662,403.514Z" transform="translate(-480.026 -403.358)" fill="#fff"/><path d="M504.716,430.932c-.844-1.285-1.537-2.344-2.234-3.4-1.523-2.306-3.1-4.576-4.556-6.923q-2.361-3.806-4.942-7.46a5.867,5.867,0,0,1-.844-1.741,6.19,6.19,0,0,1,.565-5.389,14.685,14.685,0,0,1,1.716-1.951h.65a1.8,1.8,0,0,0,.133.286c1.189,1.791,2.438,3.546,3.558,5.379,1.208,1.977,2.629,3.813,3.737,5.856.542,1,1.31,1.875,1.9,2.852a29.892,29.892,0,0,1,2.877,4.818c.06.161.211.3.238.459a9.442,9.442,0,0,1-.577,4.5A31.4,31.4,0,0,1,504.716,430.932Z" transform="translate(-417.362 -403.757)" fill="#fff"/><path d="M320.231,429.85h-6.069V403.006c1.976-.026,4,0,6.069-.013Z" transform="translate(-289.477 -402.983)" fill="#fff"/><path d="M672.219,429.854h-6.064V403.1c-.019.022.007-.019.042-.046a.217.217,0,0,1,.117-.051c1.952,0,3.9,0,5.9,0Z" transform="translate(-542.907 -402.988)" fill="#fff"/><path d="M438.154,403.013a5.383,5.383,0,0,1,4.239,1.594,6.422,6.422,0,0,1,2,3.094,3.825,3.825,0,0,1,.15.908q.012,7.826,0,15.652a4.616,4.616,0,0,1-1.278,3.095,6.654,6.654,0,0,1-2.145,1.885,4.584,4.584,0,0,1-2.97.58Z" transform="translate(-378.751 -402.99)" fill="#fff"/><path d="M408.327,429.917a4.449,4.449,0,0,1-3.171-.822,6.56,6.56,0,0,1-2.77-3.552c-.045-.12-.182-.231-.177-.342.051-1.186-.35-2.317-.318-3.518.085-3.212.029-6.428.029-9.642,0-.7.008-1.4,0-2.1-.01-.676.327-1.282.333-1.98a3.055,3.055,0,0,1,.539-1.438,7.064,7.064,0,0,1,3.807-3.217c.079-.026.133-.127.186-.18h1.543Z" transform="translate(-352.641 -403.083)" fill="#fff"/><path d="M725.115,429.848a5.061,5.061,0,0,1-3.743-1.417,8.319,8.319,0,0,1-1.79-2.049,3.637,3.637,0,0,1-.582-1.716q0-8.245,0-16.49a3.425,3.425,0,0,1,.822-2.04,7.3,7.3,0,0,1,3.076-2.724,3.331,3.331,0,0,1,2.216-.379Z" transform="translate(-580.959 -402.958)" fill="#fff"/><path d="M261.135,419.818v-16.7h1.474c.689.48,1.564.757,2.3,1.342a7.026,7.026,0,0,1,2.361,3.632,24.8,24.8,0,0,1,.214,6.306,4.483,4.483,0,0,1-.934,2.932,6.8,6.8,0,0,1-2.908,2.377,16.678,16.678,0,0,1-2.047.44C261.474,420.165,261.313,419.95,261.135,419.818Z" transform="translate(-251.297 -403.071)" fill="#fff"/><path d="M350.151,451.93a5.287,5.287,0,0,1,3.766,1.454,8.985,8.985,0,0,1,1.5,1.748,4.64,4.64,0,0,1,.87,2.584c-.055,2.419-.018,4.84-.018,7.327h-6.118Z" transform="translate(-315.389 -438.218)" fill="#fff"/><path d="M356.269,407.662c.226,2.295.086,4.439-1.669,6.172a7.828,7.828,0,0,1-4.378,2.107V403.021a5.056,5.056,0,0,1,3.889,1.555A8.7,8.7,0,0,1,356.269,407.662Z" transform="translate(-315.44 -402.984)" fill="#fff"/><path d="M604.806,403.34c.085-.1.115-.159.145-.159,2.825,0,5.649,0,8.543,0,.1,2.1.373,4.26-1.983,5.905l-2.92.288Z" transform="translate(-498.74 -403.116)" fill="#fff"/><path d="M587.792,483.128h-8.683v-4.016c.584-.377.669-1.262,1.539-1.624a7.134,7.134,0,0,1,3.18-.456Z" transform="translate(-480.238 -456.283)" fill="#fff"/><path d="M492.086,483.105v-3.988c.894-1.969,2.651-2.225,4.746-2.116l3.878,6.1Z" transform="translate(-417.582 -456.254)" fill="#fff"/><path d="M525.695,407.11c-.916,2-2.553,2.431-4.686,2.144-1.334-1.846-2.517-3.989-3.926-6.036h8.612Z" transform="translate(-435.58 -403.145)" fill="#fff"/></g></g></svg>